<?xml version="1.0" encoding="UTF-8"?>
<!DOCTYPE svg PUBLIC "-//W3C//DTD SVG 1.1//EN" "http://www.w3.org/Graphics/SVG/1.1/DTD/svg11.dtd">
<svg xmlns="http://www.w3.org/2000/svg" version="1.1" width="500px" height="500px" style="shape-rendering:geometricPrecision; text-rendering:geometricPrecision; image-rendering:optimizeQuality; fill-rule:evenodd; clip-rule:evenodd" xmlns:xlink="http://www.w3.org/1999/xlink">
<g><path style="opacity:1" fill="#2b60de" d="M 382.5,260.5 C 421.008,337.518 460.008,414.184 499.5,490.5C 499.5,493.5 499.5,496.5 499.5,499.5C 434.167,499.5 368.833,499.5 303.5,499.5C 285.956,464.075 268.289,429.075 250.5,394.5C 231.897,428.941 214.23,463.941 197.5,499.5C 132.167,499.5 66.8333,499.5 1.5,499.5C 0.833027,497.181 0.666361,494.847 1,492.5C 18.8268,456.312 37.1601,420.312 56,384.5C 64.9847,370.683 76.1514,359.017 89.5,349.5C 129.742,327.004 170.075,326.838 210.5,349C 222.914,356.746 233.414,366.579 242,378.5C 241.335,374.834 239.835,371.5 237.5,368.5C 229.856,351.879 221.689,335.545 213,319.5C 179.632,242.508 177.966,164.842 208,86.5C 218.068,64.0319 228.901,42.0319 240.5,20.5C 243.33,14.1698 246.663,8.16981 250.5,2.5C 289.523,78.2166 328.19,153.883 366.5,229.5C 371.593,240.02 376.926,250.353 382.5,260.5 Z"/></g>
<g><path style="opacity:0.059" fill="#bed8eb" d="M 247.5,-0.5 C 249.167,-0.5 250.833,-0.5 252.5,-0.5C 295.973,87.113 339.973,174.446 384.5,261.5C 383.833,261.167 383.167,260.833 382.5,260.5C 376.926,250.353 371.593,240.02 366.5,229.5C 328.19,153.883 289.523,78.2166 250.5,2.5C 246.663,8.16981 243.33,14.1698 240.5,20.5C 239.833,20.5 239.167,20.5 238.5,20.5C 240.795,14.5765 243.628,8.90986 247,3.5C 247.49,2.20677 247.657,0.873441 247.5,-0.5 Z"/></g>
<g><path style="opacity:0.082" fill="#badcf4" d="M 238.5,20.5 C 239.167,20.5 239.833,20.5 240.5,20.5C 228.901,42.0319 218.068,64.0319 208,86.5C 177.966,164.842 179.632,242.508 213,319.5C 221.689,335.545 229.856,351.879 237.5,368.5C 236.508,368.672 235.842,368.338 235.5,367.5C 235.5,366.833 235.167,366.5 234.5,366.5C 225.406,348.645 216.573,330.645 208,312.5C 178.015,235.48 178.015,158.48 208,81.5C 217.67,60.8271 227.836,40.4937 238.5,20.5 Z"/></g>
<g><path style="opacity:0.208" fill="#bfd2df" d="M 382.5,260.5 C 383.167,260.833 383.833,261.167 384.5,261.5C 421.929,334.228 459.095,407.228 496,480.5C 497.55,481.591 498.717,482.924 499.5,484.5C 499.5,486.5 499.5,488.5 499.5,490.5C 460.008,414.184 421.008,337.518 382.5,260.5 Z"/></g>
<g><path style="opacity:0.176" fill="#bcd2e2" d="M 234.5,366.5 C 235.167,366.5 235.5,366.833 235.5,367.5C 235.842,368.338 236.508,368.672 237.5,368.5C 239.835,371.5 241.335,374.834 242,378.5C 233.414,366.579 222.914,356.746 210.5,349C 170.075,326.838 129.742,327.004 89.5,349.5C 89.5,349.167 89.5,348.833 89.5,348.5C 123.219,327.995 158.552,324.829 195.5,339C 210.32,345.664 223.32,354.831 234.5,366.5 Z"/></g>
<g><path style="opacity:0.137" fill="#bbdef4" d="M 89.5,348.5 C 89.5,348.833 89.5,349.167 89.5,349.5C 76.1514,359.017 64.9847,370.683 56,384.5C 37.1601,420.312 18.8268,456.312 1,492.5C 0.666361,494.847 0.833027,497.181 1.5,499.5C 0.833333,499.5 0.166667,499.5 -0.5,499.5C -0.5,496.167 -0.5,492.833 -0.5,489.5C 18.0696,455.364 35.9029,420.698 53,385.5C 62.0186,369.982 74.1853,357.649 89.5,348.5 Z"/></g>
<g><path style="opacity:0.008" fill="#ccdeea" d="M 303.5,499.5 C 302.833,499.5 302.167,499.5 301.5,499.5C 285.066,465.536 267.899,431.87 250,398.5C 232.82,432.193 215.654,465.86 198.5,499.5C 198.167,499.5 197.833,499.5 197.5,499.5C 214.23,463.941 231.897,428.941 250.5,394.5C 268.289,429.075 285.956,464.075 303.5,499.5 Z"/></g>
</svg>
